<svg xmlns="http://www.w3.org/2000/svg" viewBox="0 0 200.18 11.84" fill="currentColor">
  <path d="M11.39,7.52c-.29.02-.51.08-.66.18-.15.1-.22.31-.22.62v1.97c0,.1,0,.23.02.41.02.18.04.31.07.39l-.18.1c-.17,0-.39.04-.66.1-.27.07-.57.14-.92.22-.35.08-.73.15-1.15.22-.42.07-.86.1-1.33.1-.95,0-1.81-.16-2.59-.46-.78-.31-1.45-.73-2.01-1.26-.55-.53-.99-1.16-1.3-1.87-.31-.71-.47-1.47-.47-2.27s.16-1.61.47-2.34c.32-.73.75-1.36,1.3-1.9.55-.54,1.19-.96,1.93-1.27.73-.31,1.52-.46,2.36-.46.53,0,1,.05,1.39.16.39.11.71.21.95.3.18.07.35.14.48.18.14.05.26.07.38.07.04,0,.09-.01.15-.03.05-.02.11-.08.16-.18l.23.03c0,.15,0,.33.02.54.01.21.03.43.05.64.02.21.05.42.07.62.03.2.05.37.07.51l-.21.06c-.12-.35-.3-.67-.55-.96-.25-.29-.54-.54-.87-.74-.33-.21-.7-.37-1.1-.48-.4-.11-.82-.17-1.26-.17-.65,0-1.27.13-1.84.38-.58.25-1.08.61-1.51,1.07-.43.46-.77,1.02-1.03,1.66-.26.65-.38,1.37-.38,2.17s.13,1.51.38,2.18c.26.66.61,1.23,1.06,1.7.45.47.99.84,1.62,1.1.63.26,1.31.39,2.05.39.63,0,1.22-.08,1.76-.25.54-.17.97-.35,1.29-.55v-2.11c0-.31-.07-.51-.22-.62-.15-.1-.37-.16-.66-.18v-.22c.07,0,.16,0,.28,0,.12,0,.25.01.38.02.14,0,.27,0,.41,0h.73c.14,0,.27,0,.41,0,.14,0,.26-.01.38-.02.12,0,.21,0,.28,0v.22Z"/>
  <path d="M16.35,8.22l-.93,2.3c-.12.29-.12.49-.02.6.11.11.31.18.6.2v.22c-.14-.01-.33-.02-.57-.02-.24,0-.47,0-.69,0s-.45,0-.69,0c-.24,0-.44.01-.58.02v-.22c.29-.02.53-.09.72-.2.18-.11.34-.31.46-.6L18.83.19h.23l4.05,10.34c.12.29.26.49.43.6.17.11.4.18.69.2v.22c-.07,0-.16,0-.29,0-.13,0-.26-.01-.39-.02-.14,0-.27,0-.42,0h-.75c-.14,0-.28,0-.42,0-.14,0-.27.01-.39.02-.12,0-.21,0-.28,0v-.22c.29-.02.5-.09.63-.2.12-.11.13-.31,0-.6l-.9-2.3h-4.68ZM18.74,2.35l-2.15,5.3h4.23l-2.07-5.3Z"/>
  <path d="M26.73.29c.07,0,.16,0,.28,0,.12,0,.25.01.38.02.14,0,.27,0,.41,0h4.01c.83,0,1.6.15,2.31.45.71.3,1.33.7,1.85,1.21s.93,1.1,1.22,1.78c.29.68.44,1.4.44,2.17,0,.65-.12,1.31-.35,1.99-.23.68-.6,1.29-1.11,1.85s-1.15,1.01-1.94,1.36c-.79.35-1.73.53-2.83.53-.46,0-.97-.02-1.53-.06-.56-.04-1.09-.06-1.57-.06h-.38c-.15,0-.3,0-.45,0-.15,0-.3.01-.43.02-.14,0-.24,0-.3,0v-.22c.29-.02.51-.08.66-.18.15-.1.22-.31.22-.62V1.31c0-.31-.07-.51-.22-.62-.15-.1-.37-.16-.66-.18v-.22ZM28.72,10.58c.35.12.73.23,1.16.34.42.11.92.16,1.49.16.76,0,1.45-.12,2.06-.36.61-.24,1.14-.58,1.58-1.01.44-.43.78-.95,1.02-1.56.24-.61.36-1.27.36-2,0-.65-.1-1.29-.3-1.92-.2-.63-.51-1.19-.93-1.68-.42-.49-.95-.89-1.58-1.19s-1.39-.46-2.26-.46h-2.59v9.68Z"/>
  <path d="M42.59,8.22l-.93,2.3c-.12.29-.12.49-.02.6.11.11.31.18.6.2v.22c-.14-.01-.33-.02-.57-.02-.24,0-.47,0-.69,0s-.45,0-.69,0c-.24,0-.44.01-.58.02v-.22c.29-.02.53-.09.72-.2.18-.11.34-.31.46-.6L45.08.19h.23l4.05,10.34c.12.29.26.49.43.6.17.11.4.18.69.2v.22c-.07,0-.16,0-.29,0-.13,0-.26-.01-.39-.02-.14,0-.27,0-.42,0h-.75c-.14,0-.28,0-.42,0-.14,0-.27.01-.39.02-.12,0-.21,0-.28,0v-.22c.29-.02.5-.09.63-.2.12-.11.13-.31,0-.6l-.9-2.3h-4.68ZM44.98,2.35l-2.15,5.3h4.23l-2.07-5.3Z"/>
  <path d="M56.25.32c.39,0,.76.07,1.11.2.35.13.65.32.91.55.26.24.46.52.61.85.15.33.22.69.22,1.07,0,.31-.05.59-.14.85s-.21.48-.36.68-.31.37-.5.51c-.19.14-.36.26-.54.34.42.06.8.19,1.13.38.33.19.61.42.85.7.23.27.41.58.54.92.12.34.19.69.19,1.06,0,.45-.09.86-.26,1.24-.17.38-.42.7-.73.98-.31.27-.68.49-1.1.64-.42.16-.89.23-1.39.23h-2.77c-.14,0-.27,0-.41,0-.14,0-.26.01-.38.02-.12,0-.21,0-.28,0v-.22c.29-.02.51-.08.66-.18.15-.1.22-.31.22-.62V1.31c0-.31-.07-.51-.22-.62-.15-.1-.37-.16-.66-.18v-.22c.07,0,.16,0,.28,0,.12,0,.25.01.38.02.14,0,.27,0,.41,0h2.21ZM54.97,5.34h.7c.32,0,.61-.06.89-.18.28-.12.52-.28.72-.47s.36-.43.48-.7c.12-.27.18-.56.18-.87s-.06-.6-.17-.87c-.11-.27-.27-.51-.48-.7-.21-.2-.45-.35-.74-.47-.29-.12-.6-.18-.94-.18-.12,0-.24,0-.38.02-.13.01-.22.02-.26.03v4.4ZM54.97,10.78c.15.03.36.07.63.1.27.04.54.06.82.06.39,0,.75-.06,1.08-.18.33-.12.61-.29.84-.51.23-.22.42-.48.55-.78.13-.3.2-.64.2-1.02,0-.35-.07-.68-.2-.99-.13-.31-.31-.58-.54-.8-.23-.22-.5-.4-.82-.54-.32-.13-.67-.2-1.04-.2h-1.52v4.86Z"/>
  <path d="M69.82,0c.83,0,1.61.15,2.34.46.73.31,1.38.73,1.93,1.27.55.54.98,1.17,1.3,1.89.32.72.47,1.49.47,2.3s-.16,1.59-.47,2.3c-.32.71-.75,1.34-1.3,1.88-.55.54-1.19.96-1.93,1.27-.73.31-1.52.46-2.34.46s-1.62-.16-2.35-.46c-.73-.31-1.37-.73-1.92-1.27-.55-.54-.98-1.17-1.3-1.88-.32-.71-.47-1.48-.47-2.3s.16-1.58.47-2.3c.32-.72.75-1.35,1.3-1.89.55-.54,1.19-.96,1.92-1.27s1.51-.46,2.35-.46ZM69.82.54c-.66,0-1.29.14-1.87.42-.58.28-1.09.67-1.53,1.15-.44.49-.78,1.06-1.03,1.71-.25.66-.38,1.35-.38,2.09s.12,1.43.38,2.09c.25.66.59,1.23,1.03,1.71s.94.87,1.53,1.15c.58.28,1.21.42,1.87.42s1.29-.14,1.87-.42c.58-.28,1.09-.67,1.53-1.15s.78-1.06,1.03-1.71c.25-.66.38-1.35.38-2.09s-.13-1.43-.38-2.09c-.25-.66-.59-1.23-1.03-1.71-.44-.48-.94-.87-1.53-1.15-.58-.28-1.21-.42-1.87-.42Z"/>
  <path d="M88.98,7.46c0,.71-.12,1.35-.35,1.9-.23.55-.55,1.01-.96,1.38s-.87.65-1.4.83c-.53.19-1.1.28-1.7.28s-1.12-.09-1.64-.26c-.52-.18-.97-.45-1.37-.81s-.71-.82-.95-1.37c-.23-.55-.35-1.2-.35-1.94V1.31c0-.31-.07-.51-.22-.62-.15-.1-.37-.16-.66-.18v-.22c.07,0,.16,0,.28,0,.12,0,.25.01.38.02.14,0,.27,0,.41,0h.73c.14,0,.27,0,.41,0,.14,0,.26-.01.38-.02.12,0,.21,0,.28,0v.22c-.29.02-.51.08-.66.18-.15.1-.22.31-.22.62v6.14c0,.65.1,1.21.29,1.66.2.46.45.83.77,1.12s.67.5,1.07.63c.4.13.8.2,1.2.2.42,0,.85-.07,1.27-.22.42-.14.81-.36,1.14-.66.34-.29.61-.67.82-1.12.21-.45.32-.99.32-1.62V1.31c0-.31-.07-.51-.22-.62-.15-.1-.37-.16-.66-.18v-.22c.14.01.33.02.56.02.23,0,.46,0,.68,0s.44,0,.68,0c.23,0,.42-.01.56-.02v.22c-.29.02-.51.08-.66.18-.15.1-.22.31-.22.62v6.14Z"/>
  <path d="M102.26,1.95c-.01-.08-.03-.19-.06-.3s-.07-.23-.14-.34-.14-.21-.24-.29c-.09-.08-.21-.12-.35-.12h-3.13v9.63c0,.31.07.51.22.62s.37.16.66.18v.22c-.06,0-.16,0-.28,0-.12,0-.25-.01-.38-.02-.14,0-.27,0-.41,0h-.73c-.14,0-.27,0-.41,0-.14,0-.26.01-.38.02-.12,0-.21,0-.28,0v-.22c.29-.02.51-.08.66-.18.15-.1.22-.31.22-.62V.9h-3.13c-.14,0-.26.04-.35.12-.09.08-.17.18-.24.29-.06.11-.11.23-.14.34s-.05.22-.06.3h-.23l.07-1.66.16-.06s.11.02.25.05.37.05.66.05h7.12c.29,0,.51-.02.66-.05s.23-.05.25-.05l.16.06.07,1.66h-.23Z"/>
  <path d="M124.7,2.91c-.25-.67-.7-1.22-1.35-1.66-.65-.43-1.46-.65-2.42-.65-.69,0-1.33.12-1.93.37s-1.13.59-1.57,1.05c-.44.45-.79,1-1.04,1.65s-.38,1.37-.38,2.17.13,1.53.38,2.2c.26.67.61,1.24,1.06,1.72.45.48.98.85,1.6,1.11.61.26,1.28.39,2,.39.51,0,.97-.07,1.39-.2.41-.13.78-.31,1.1-.54.32-.22.59-.49.81-.79s.38-.63.49-.98l.23.06c-.03.15-.08.34-.13.56-.05.22-.11.46-.16.7-.05.24-.11.47-.15.69-.05.22-.08.4-.11.54l-.23.03s-.03-.04-.05-.06-.05-.04-.07-.06c-.03-.02-.06-.02-.11-.02-.09,0-.22.04-.38.1-.17.07-.38.14-.63.22s-.55.15-.9.22-.75.1-1.19.1c-.91,0-1.75-.16-2.51-.48-.76-.32-1.41-.75-1.96-1.3s-.97-1.18-1.26-1.9c-.3-.72-.45-1.5-.45-2.32s.15-1.55.44-2.26c.29-.71.7-1.33,1.23-1.86.53-.53,1.16-.95,1.89-1.26s1.54-.46,2.42-.46c.47,0,.89.04,1.27.11.38.08.72.16,1.01.25.29.09.55.17.77.25.22.08.4.11.54.11.09,0,.17-.02.25-.06.08-.04.14-.1.2-.18l.23.03c-.02.28-.04.62-.07,1.02-.02.4-.03.85-.03,1.34l-.21.05Z"/>
  <path d="M137.51,11.62c-.56,0-1.06-.12-1.51-.38-.45-.25-.87-.6-1.25-1.06-.41-.48-.79-1.06-1.14-1.74-.35-.68-.72-1.43-1.11-2.26h-1.35v4.35c0,.31.07.51.22.62.15.1.37.16.66.18v.22c-.06,0-.16,0-.28,0-.12,0-.25-.01-.38-.02-.14,0-.27,0-.41,0h-.73c-.14,0-.27,0-.41,0-.14,0-.26.01-.38.02-.12,0-.21,0-.28,0v-.22c.29-.02.51-.08.66-.18.15-.1.22-.31.22-.62V1.31c0-.31-.07-.51-.22-.62-.15-.1-.37-.16-.66-.18v-.22c.06,0,.16,0,.28,0,.12,0,.25.01.38.02.14,0,.27,0,.41,0h2.7c.41,0,.8.08,1.17.23.36.15.68.36.95.62s.48.57.64.93.24.74.24,1.14c0,.35-.06.68-.18.99-.12.31-.28.59-.49.85-.21.26-.45.47-.73.65-.28.18-.59.3-.91.38.35.63.7,1.26,1.06,1.9.36.63.72,1.21,1.08,1.72.3.44.61.8.91,1.1.3.29.59.48.87.57v.22ZM131.15,5.6h1.29c.33,0,.63-.06.91-.18.28-.12.53-.29.73-.5.21-.21.37-.46.48-.74.11-.28.17-.58.17-.9s-.06-.64-.19-.93c-.12-.29-.3-.54-.51-.75-.22-.21-.48-.38-.77-.5-.3-.12-.62-.18-.97-.18-.15,0-.34.01-.57.03s-.42.04-.57.06v4.61Z"/>
  <path d="M141.05.3c.12,0,.25.01.38.02.14,0,.27,0,.41,0h3.75c.29,0,.49,0,.6-.02.1-.01.2-.04.29-.08l.23.03c0,.33.01.64.03.94.02.29.04.55.07.76l-.23.03c-.09-.37-.19-.65-.3-.82-.11-.18-.3-.26-.55-.26h-2.95v4.51h1.86c.21,0,.36-.04.46-.13.1-.08.19-.25.25-.48h.23c-.01.12-.02.25-.02.39,0,.14,0,.31,0,.49,0,.19,0,.36,0,.51s.01.28.02.4h-.23c-.03-.22-.11-.38-.23-.47-.12-.09-.28-.14-.49-.14h-1.86v4.59c.1.03.23.07.39.11.16.04.34.08.54.12.2.04.4.07.6.1.21.03.4.04.59.04.61,0,1.14-.12,1.59-.36.45-.24.79-.56,1-.97l.21.08c-.12.36-.23.71-.33,1.04-.1.33-.16.62-.2.88h-.23s-.07-.04-.14-.06c-.07-.02-.19-.03-.35-.03h-4.61c-.14,0-.27,0-.41,0-.14,0-.26.01-.38.02-.12,0-.21,0-.28,0v-.22c.29-.02.51-.08.66-.18.15-.1.22-.31.22-.62V1.31c0-.31-.07-.51-.22-.62-.15-.1-.37-.16-.66-.18v-.22c.06,0,.16,0,.28,0Z"/>
  <path d="M152.92,8.22l-.93,2.3c-.12.29-.12.49-.02.6.11.11.31.18.6.2v.22c-.14-.01-.33-.02-.57-.02-.24,0-.47,0-.69,0s-.45,0-.69,0c-.25,0-.44.01-.58.02v-.22c.29-.02.53-.09.72-.2.18-.11.34-.31.46-.6L155.4.19h.23l4.05,10.34c.12.29.26.49.43.6.17.11.4.18.69.2v.22c-.07,0-.16,0-.29,0-.12,0-.26-.01-.39-.02-.14,0-.27,0-.42,0h-.75c-.14,0-.28,0-.42,0-.14,0-.27.01-.39.02-.12,0-.21,0-.28,0v-.22c.29-.02.5-.09.63-.2.12-.11.13-.31,0-.6l-.9-2.3h-4.68ZM155.3,2.35l-2.15,5.3h4.23l-2.07-5.3Z"/>
  <path d="M171.16,1.95c-.01-.08-.03-.19-.06-.3-.03-.12-.07-.23-.14-.34-.07-.11-.14-.21-.24-.29-.09-.08-.21-.12-.35-.12h-3.13v9.63c0,.31.07.51.22.62.15.1.37.16.66.18v.22c-.07,0-.16,0-.28,0-.12,0-.25-.01-.38-.02-.14,0-.27,0-.41,0h-.73c-.14,0-.27,0-.41,0-.14,0-.26.01-.38.02-.12,0-.21,0-.28,0v-.22c.29-.02.51-.08.66-.18s.22-.31.22-.62V.9h-3.13c-.14,0-.26.04-.35.12s-.17.18-.24.29c-.07.11-.11.23-.14.34-.03.12-.05.22-.06.3h-.23l.06-1.66.16-.06s.11.02.25.05.37.05.66.05h7.12c.29,0,.51-.02.66-.05.15-.03.23-.05.25-.05l.16.06.07,1.66h-.23Z"/>
  <path d="M177.59.51c-.29.02-.51.08-.66.18-.15.1-.22.31-.22.62v9.22c0,.31.07.51.22.62s.37.16.66.18v.22c-.07,0-.16,0-.28,0-.12,0-.25-.01-.38-.02-.14,0-.27,0-.41,0h-.73c-.14,0-.27,0-.41,0-.14,0-.26.01-.38.02-.12,0-.21,0-.28,0v-.22c.29-.02.51-.08.66-.18s.22-.31.22-.62V1.31c0-.31-.07-.51-.22-.62-.15-.1-.37-.16-.66-.18v-.22c.07,0,.16,0,.28,0,.12,0,.25.01.38.02.14,0,.27,0,.41,0h.73c.14,0,.27,0,.41,0,.14,0,.26-.01.38-.02.12,0,.21,0,.28,0v.22Z"/>
  <path d="M190.84.51c-.29.02-.53.09-.72.2-.19.11-.34.31-.46.6l-4.05,10.34h-.23l-4.18-10.34c-.12-.29-.26-.49-.43-.6-.17-.11-.4-.18-.69-.2v-.22c.07,0,.16,0,.28,0,.12,0,.25.01.39.02.14,0,.28,0,.42,0h.75c.14,0,.28,0,.42,0,.14,0,.27-.01.39-.02.12,0,.22,0,.29,0v.22c-.29.02-.5.09-.63.2-.13.11-.13.31,0,.6l3.31,8.18,3.2-8.18c.12-.29.12-.49.02-.6-.11-.11-.31-.18-.6-.2v-.22c.14.01.33.02.57.02.24,0,.47,0,.69,0s.45,0,.69,0c.24,0,.44-.01.58-.02v.22Z"/>
  <path d="M193.54.3c.12,0,.25.01.38.02.14,0,.27,0,.41,0h3.75c.29,0,.49,0,.6-.02.1-.01.2-.04.29-.08l.23.03c0,.33.01.64.03.94.02.29.04.55.07.76l-.23.03c-.09-.37-.19-.65-.3-.82-.11-.18-.3-.26-.55-.26h-2.95v4.51h1.86c.21,0,.36-.04.46-.13.1-.08.19-.25.25-.48h.23c-.01.12-.02.25-.02.39,0,.14,0,.31,0,.49,0,.19,0,.36,0,.51s.01.28.02.4h-.23c-.03-.22-.11-.38-.23-.47-.12-.09-.28-.14-.49-.14h-1.86v4.59c.1.03.23.07.39.11.16.04.34.08.54.12.2.04.4.07.6.1.21.03.4.04.59.04.61,0,1.14-.12,1.59-.36.45-.24.79-.56,1-.97l.21.08c-.12.36-.23.71-.33,1.04-.1.33-.16.62-.2.88h-.23s-.07-.04-.14-.06c-.07-.02-.19-.03-.35-.03h-4.61c-.14,0-.27,0-.41,0-.14,0-.26.01-.38.02-.12,0-.21,0-.28,0v-.22c.29-.02.51-.08.66-.18.15-.1.22-.31.22-.62V1.31c0-.31-.07-.51-.22-.62-.15-.1-.37-.16-.66-.18v-.22c.06,0,.16,0,.28,0Z"/>
</svg>
